<svg xmlns="http://www.w3.org/2000/svg" xmlns:svg="http://www.w3.org/2000/svg" id="svg2" width="164.571" height="118.919" version="1.1"><defs id="defs4"><marker id="Arrow2Mstart" orient="auto" overflow="visible" refX="0" refY="0"><path id="path3863" fill-rule="evenodd" stroke-linejoin="round" stroke-width=".625" d="M 8.7185878,4.0337352 -2.2072895,0.01601326 8.7185884,-4.0017078 c -1.7454984,2.3720609 -1.7354408,5.6174519 -6e-7,8.035443 z" font-size="12" transform="scale(0.6,0.6)"/></marker><marker id="Arrow2Mend" orient="auto" overflow="visible" refX="0" refY="0"><path id="path3866" fill-rule="evenodd" stroke-linejoin="round" stroke-width=".625" d="M 8.7185878,4.0337352 -2.2072895,0.01601326 8.7185884,-4.0017078 c -1.7454984,2.3720609 -1.7354408,5.6174519 -6e-7,8.035443 z" font-size="12" transform="scale(-0.6,-0.6)"/></marker></defs><metadata id="metadata7"/><g id="layer1" transform="translate(-288.07143,-66.086366)"><g id="g4486" transform="translate(14.126592,-54.347249)"><path id="path4488" fill="none" stroke="#00f" stroke-dasharray="none" stroke-dashoffset="0" stroke-linecap="round" stroke-miterlimit="4" stroke-opacity="1" stroke-width="1" d="m 347.14286,150.21933 a 29.285715,29.285715 0 1 1 -58.57143,0 29.285715,29.285715 0 1 1 58.57143,0 z" opacity=".5"/><path id="path4490" fill="#00f" stroke="#000" stroke-dasharray="none" stroke-miterlimit="4" stroke-width="4.1" d="m 347.14286,150.21933 a 29.285715,29.285715 0 1 1 -58.57143,0 29.285715,29.285715 0 1 1 58.57143,0 z" transform="matrix(0.12195124,0,0,0.12195124,279.09407,131.8999)"/></g><g id="g3788"><path id="path2985" fill="none" stroke="#ff0" stroke-dasharray="none" stroke-dashoffset="0" stroke-linecap="round" stroke-miterlimit="4" stroke-opacity="1" stroke-width="1" d="m 347.14286,150.21933 a 29.285715,29.285715 0 1 1 -58.57143,0 29.285715,29.285715 0 1 1 58.57143,0 z" opacity=".5"/><path id="path2987" fill="#ff0" stroke="#000" stroke-dasharray="none" stroke-miterlimit="4" stroke-width="4.1" d="m 347.14286,150.21933 a 29.285715,29.285715 0 1 1 -58.57143,0 29.285715,29.285715 0 1 1 58.57143,0 z" transform="matrix(0.12195124,0,0,0.12195124,279.09407,131.8999)"/></g><g id="g3792" transform="translate(18,-9)"><path id="path3794" fill="none" stroke="red" stroke-dasharray="none" stroke-dashoffset="0" stroke-linecap="round" stroke-miterlimit="4" stroke-opacity="1" stroke-width="1" d="m 347.14286,150.21933 a 29.285715,29.285715 0 1 1 -58.57143,0 29.285715,29.285715 0 1 1 58.57143,0 z" opacity=".5"/><path id="path3796" fill="red" stroke="#000" stroke-dasharray="none" stroke-miterlimit="4" stroke-width="4.1" d="m 347.14286,150.21933 a 29.285715,29.285715 0 1 1 -58.57143,0 29.285715,29.285715 0 1 1 58.57143,0 z" transform="matrix(0.12195124,0,0,0.12195124,279.09407,131.8999)"/></g><g id="g3798" transform="translate(38,5)"><path id="path3800" fill="none" stroke="red" stroke-dasharray="none" stroke-dashoffset="0" stroke-linecap="round" stroke-miterlimit="4" stroke-opacity="1" stroke-width="1" d="m 347.14286,150.21933 a 29.285715,29.285715 0 1 1 -58.57143,0 29.285715,29.285715 0 1 1 58.57143,0 z" opacity=".5"/><path id="path3802" fill="red" stroke="#000" stroke-dasharray="none" stroke-miterlimit="4" stroke-width="4.1" d="m 347.14286,150.21933 a 29.285715,29.285715 0 1 1 -58.57143,0 29.285715,29.285715 0 1 1 58.57143,0 z" transform="matrix(0.12195124,0,0,0.12195124,279.09407,131.8999)"/></g><g id="g3828" transform="translate(105,-15)"><path id="path3830" fill="none" stroke="#ff0" stroke-dasharray="none" stroke-dashoffset="0" stroke-linecap="round" stroke-miterlimit="4" stroke-opacity="1" stroke-width="1" d="m 347.14286,150.21933 a 29.285715,29.285715 0 1 1 -58.57143,0 29.285715,29.285715 0 1 1 58.57143,0 z" opacity=".5"/><path id="path3832" fill="#ff0" stroke="#000" stroke-dasharray="none" stroke-miterlimit="4" stroke-width="4.1" d="m 347.14286,150.21933 a 29.285715,29.285715 0 1 1 -58.57143,0 29.285715,29.285715 0 1 1 58.57143,0 z" transform="matrix(0.12195124,0,0,0.12195124,279.09407,131.8999)"/></g><g id="g3804" transform="translate(60,-4)"><path id="path3806" fill="none" stroke="red" stroke-dasharray="none" stroke-dashoffset="0" stroke-linecap="round" stroke-miterlimit="4" stroke-opacity="1" stroke-width="1" d="m 347.14286,150.21933 a 29.285715,29.285715 0 1 1 -58.57143,0 29.285715,29.285715 0 1 1 58.57143,0 z" opacity=".5"/><path id="path3808" fill="red" stroke="#000" stroke-dasharray="none" stroke-miterlimit="4" stroke-width="4.1" d="m 347.14286,150.21933 a 29.285715,29.285715 0 1 1 -58.57143,0 29.285715,29.285715 0 1 1 58.57143,0 z" transform="matrix(0.12195124,0,0,0.12195124,279.09407,131.8999)"/></g><g id="g3810" transform="translate(36,-16)"><path id="path3812" fill="none" stroke="red" stroke-dasharray="none" stroke-dashoffset="0" stroke-linecap="round" stroke-miterlimit="4" stroke-opacity="1" stroke-width="1" d="m 347.14286,150.21933 a 29.285715,29.285715 0 1 1 -58.57143,0 29.285715,29.285715 0 1 1 58.57143,0 z" opacity=".5"/><path id="path3814" fill="red" stroke="#000" stroke-dasharray="none" stroke-miterlimit="4" stroke-width="4.1" d="m 347.14286,150.21933 a 29.285715,29.285715 0 1 1 -58.57143,0 29.285715,29.285715 0 1 1 58.57143,0 z" transform="matrix(0.12195124,0,0,0.12195124,279.09407,131.8999)"/></g><g id="g3816" transform="translate(58,-23)"><path id="path3818" fill="none" stroke="red" stroke-dasharray="none" stroke-dashoffset="0" stroke-linecap="round" stroke-miterlimit="4" stroke-opacity="1" stroke-width="1" d="m 347.14286,150.21933 a 29.285715,29.285715 0 1 1 -58.57143,0 29.285715,29.285715 0 1 1 58.57143,0 z" opacity=".5"/><path id="path3820" fill="red" stroke="#000" stroke-dasharray="none" stroke-miterlimit="4" stroke-width="4.1" d="m 347.14286,150.21933 a 29.285715,29.285715 0 1 1 -58.57143,0 29.285715,29.285715 0 1 1 58.57143,0 z" transform="matrix(0.12195124,0,0,0.12195124,279.09407,131.8999)"/></g><g id="g3822" transform="translate(81,-15)"><path id="path3824" fill="none" stroke="red" stroke-dasharray="none" stroke-dashoffset="0" stroke-linecap="round" stroke-miterlimit="4" stroke-opacity="1" stroke-width="1" d="m 347.14286,150.21933 a 29.285715,29.285715 0 1 1 -58.57143,0 29.285715,29.285715 0 1 1 58.57143,0 z" opacity=".5"/><path id="path3826" fill="red" stroke="#000" stroke-dasharray="none" stroke-miterlimit="4" stroke-width="4.1" d="m 347.14286,150.21933 a 29.285715,29.285715 0 1 1 -58.57143,0 29.285715,29.285715 0 1 1 58.57143,0 z" transform="matrix(0.12195124,0,0,0.12195124,279.09407,131.8999)"/></g><path id="path3834" fill="none" stroke="#000" stroke-linecap="butt" stroke-linejoin="miter" stroke-opacity="1" stroke-width="1" marker-end="url(#Arrow2Mend)" d="m 332.73408,142.69126 -11.39821,5.93332"/><path id="path4280" fill="#b3b3b3" stroke="#000" stroke-linecap="butt" stroke-linejoin="miter" stroke-opacity="1" stroke-width="1" marker-end="url(#Arrow2Mend)" d="m 402.21633,135.35268 16.55082,-0.46841"/><path id="path4282" fill="none" stroke="#000" stroke-linecap="butt" stroke-linejoin="miter" stroke-opacity="1" stroke-width="1" marker-end="url(#Arrow2Mend)" marker-start="url(#Arrow2Mstart)" d="m 379.57605,128.17025 15.45784,5.46491"/><path id="path4470" fill="none" stroke="#000" stroke-linecap="butt" stroke-linejoin="miter" stroke-opacity="1" stroke-width="1" marker-end="url(#Arrow2Mend)" marker-start="url(#Arrow2Mstart)" d="m 357.71647,132.38602 13.7403,-4.3719"/><path id="path4472" fill="none" stroke="#000" stroke-linecap="butt" stroke-linejoin="miter" stroke-opacity="1" stroke-width="1" marker-end="url(#Arrow2Mend)" marker-start="url(#Arrow2Mstart)" d="m 358.02875,135.8211 15.61398,8.43157"/><path id="path4474" fill="none" stroke="#000" stroke-linecap="butt" stroke-linejoin="miter" stroke-opacity="1" stroke-width="1" marker-end="url(#Arrow2Mend)" marker-start="url(#Arrow2Mstart)" d="m 382.54271,145.03335 12.49118,-6.87014"/><path id="path4476" fill="none" stroke="#000" stroke-linecap="butt" stroke-linejoin="miter" stroke-opacity="1" stroke-width="1" marker-end="url(#Arrow2Mend)" marker-start="url(#Arrow2Mstart)" d="m 339.13582,140.19301 11.3982,-4.99646"/><path id="path4478" fill="none" stroke="#000" stroke-linecap="butt" stroke-linejoin="miter" stroke-opacity="1" stroke-width="1" marker-end="url(#Arrow2Mend)" marker-start="url(#Arrow2Mstart)" d="m 360.68312,154.87016 13.42802,-6.55786"/><path id="path4480" fill="none" stroke="#000" stroke-linecap="butt" stroke-linejoin="miter" stroke-opacity="1" stroke-width="1" marker-end="url(#Arrow2Mend)" marker-start="url(#Arrow2Mstart)" d="m 339.60424,143.00353 13.42802,9.83683"/><path id="path4482" fill="none" stroke="#000" stroke-linecap="butt" stroke-linejoin="miter" stroke-opacity="1" stroke-width="1" marker-end="url(#Arrow2Mend)" marker-start="url(#Arrow2Mstart)" d="m 354.74981,138.78775 1.71753,12.80349"/><path id="path4484" fill="none" stroke="#000" stroke-linecap="butt" stroke-linejoin="miter" stroke-opacity="1" stroke-width="1" marker-end="url(#Arrow2Mend)" marker-start="url(#Arrow2Mstart)" d="m 376.29711,130.98076 0.78069,10.77367"/><text font-stretch="normal" style="text-align:center;line-height:125%;-inkscape-font-specification:Times" id="text4514" x="380.981" y="122.549" fill="#000" fill-opacity="1" stroke="none" font-family="Times" font-size="15" font-style="normal" font-variant="normal" font-weight="normal" letter-spacing="0" text-anchor="middle" word-spacing="0" xml:space="preserve"><tspan id="tspan4516" x="380.981" y="122.549">A</tspan></text><text font-stretch="normal" style="text-align:center;line-height:125%;-inkscape-font-specification:Times" id="text4518" x="423.764" y="129.888" fill="#000" fill-opacity="1" stroke="none" font-family="Times" font-size="15" font-style="normal" font-variant="normal" font-weight="normal" letter-spacing="0" text-anchor="middle" word-spacing="0" xml:space="preserve"><tspan id="tspan4520" x="423.764" y="129.888">C</tspan></text><text font-stretch="normal" style="text-align:center;line-height:125%;-inkscape-font-specification:Times" id="text4522" x="317.589" y="165.8" fill="#000" fill-opacity="1" stroke="none" font-family="Times" font-size="15" font-style="normal" font-variant="normal" font-weight="normal" letter-spacing="0" text-anchor="middle" word-spacing="0" xml:space="preserve"><tspan id="tspan4524" x="317.589" y="165.8">B</tspan></text><text font-stretch="normal" style="text-align:center;line-height:125%;-inkscape-font-specification:Times" id="text4526" x="332.578" y="89.604" fill="#000" fill-opacity="1" stroke="none" font-family="Times" font-size="15" font-style="normal" font-variant="normal" font-weight="normal" letter-spacing="0" text-anchor="middle" word-spacing="0" xml:space="preserve"><tspan id="tspan4528" x="332.578" y="89.604">N</tspan></text></g></svg>